<svg width="61" height="61" viewBox="0 0 61 61" fill="none" xmlns="http://www.w3.org/2000/svg">
<g clip-path="url(#clip0_1_733)">
<path d="M59.1005 59.7625C59.1005 59.8578 59.1288 59.951 59.1817 60.0303C59.2347 60.1095 59.31 60.1713 59.398 60.2078C59.4861 60.2442 59.583 60.2538 59.6765 60.2352C59.77 60.2166 59.8559 60.1707 59.9233 60.1033C59.9907 60.0359 60.0366 59.95 60.0552 59.8565C60.0738 59.763 60.0642 59.6661 60.0278 59.578C59.9913 59.49 59.9295 59.4147 59.8502 59.3617C59.771 59.3088 59.6778 59.2805 59.5825 59.2805C59.4546 59.2805 59.3321 59.3313 59.2417 59.4217C59.1513 59.5121 59.1005 59.6347 59.1005 59.7625Z" fill="#4B60B5"/>
<path d="M60.33 5.99853V0.51001H46.5595V7.58214C50.8157 6.52037 55.1861 5.98522 59.5726 5.9887L60.33 5.99853Z" fill="#4B60B5"/>
<path d="M0.330017 60.51H5.81854C5.81854 60.2641 5.81854 60.0083 5.81854 59.7624C5.81507 55.3759 6.35022 51.0055 7.41198 46.7493H0.330017V60.51Z" fill="#4B60B5"/>
<path d="M14.671 60.51H23.8972C23.8972 60.2641 23.8972 60.0083 23.8972 59.7624C23.9063 55.3064 24.7539 50.8919 26.3956 46.7493H16.5595C15.2665 50.9665 14.6036 55.3515 14.5923 59.7624C14.6612 60.0182 14.671 60.2641 14.671 60.51Z" fill="#4B60B5"/>
<path d="M60.33 24.0772V14.851H59.5825C55.1716 14.8623 50.7865 15.5252 46.5694 16.8182V26.5756C50.7145 24.9473 55.129 24.1132 59.5825 24.1166L60.33 24.0772Z" fill="#4B60B5"/>
<path d="M30.7235 60.51H41.9956C41.9956 60.2641 41.9956 60.0084 41.9956 59.7625C42.0008 55.0945 43.8574 50.6193 47.1582 47.3185C50.4589 44.0178 54.9342 42.1611 59.6022 42.1559H60.3497V30.9035H59.6022C55.0799 30.8981 50.6207 31.9632 46.589 34.0117V46.7985H33.8021C31.7537 50.8302 30.6886 55.2895 30.694 59.8117C30.7136 60.0182 30.7235 60.2641 30.7235 60.51Z" fill="#4B60B5"/>
<path d="M46.7661 59.7624C46.7661 60.0083 46.7661 60.2641 46.7661 60.51H60.33V46.9756C60.0841 46.9756 59.8284 46.9756 59.5825 46.9756C57.9008 46.9717 56.2349 47.2996 54.6801 47.9404C53.1253 48.5813 51.7122 49.5225 50.5217 50.7103C49.3312 51.8981 48.3867 53.309 47.7422 54.8623C47.0978 56.4156 46.7661 58.0808 46.7661 59.7624Z" fill="#4B60B5"/>
</g>
<defs>
<clipPath id="clip0_1_733">
<rect width="60" height="60" fill="white" transform="translate(0.330017 0.51001)"/>
</clipPath>
</defs>
</svg>
