<svg width="61" height="60" viewBox="0 0 61 60" fill="none" xmlns="http://www.w3.org/2000/svg">
<g clip-path="url(#clip0_1_723)">
<path d="M14.0668 13.001H22.3684L35.0373 0.332123H23.2438L0.670044 22.9059V34.6993L14.0668 21.3026V13.001Z" fill="#00AFB1"/>
<path d="M14.0668 28.5026L0.670044 41.8993V53.7026L14.0668 40.3059V28.5026Z" fill="#00AFB1"/>
<path d="M41.3717 13.001L54.0406 0.332123H42.2373L29.5684 13.001H41.3717Z" fill="#00AFB1"/>
<path d="M14.0668 59.2993V47.5059L2.18481 59.3878H13.9881L14.0668 59.2993Z" fill="#00AFB1"/>
<path d="M60.3651 13.001L60.67 12.6961V0.902618L48.5717 13.001H60.3651Z" fill="#00AFB1"/>
<path d="M5.84381 0.332123H4.24054H0.670044V3.90261V4.88622V15.6961L16.034 0.332123H5.84381Z" fill="#00AFB1"/>
</g>
<defs>
<clipPath id="clip0_1_723">
<rect width="60" height="59.0557" fill="white" transform="translate(0.670044 0.332123)"/>
</clipPath>
</defs>
</svg>
